<svg width="50" height="50" viewBox="0 0 50 50" fill="none" xmlns="http://www.w3.org/2000/svg">
<g clip-path="url(#clip0)">
<path d="M22.5 6.66667H27.5C27.9602 6.66667 28.3333 6.29357 28.3333 5.83333C28.3333 5.3731 27.9602 5 27.5 5H22.5C22.0397 5 21.6666 5.3731 21.6666 5.83333C21.6666 6.29357 22.0397 6.66667 22.5 6.66667Z" fill="#645FCE"/>
<path d="M36.6666 6.66667H45.8333C46.2935 6.66667 46.6666 6.29357 46.6666 5.83333C46.6666 5.3731 46.2935 5 45.8333 5H36.6666C36.2064 5 35.8333 5.3731 35.8333 5.83333C35.8333 6.29357 36.2064 6.66667 36.6666 6.66667Z" fill="#645FCE"/>
<path d="M45.8333 1.66663H4.16667C1.86662 1.66938 0.0027551 3.53325 0 5.83329V37.5C0.0027551 39.8 1.86662 41.6639 4.16667 41.6666H11.6733C14.8132 45.8628 19.7475 48.3333 24.9883 48.3333C30.2292 48.3333 35.1634 45.8628 38.3033 41.6666H45.8333C48.1334 41.6639 49.9972 39.8 50 37.5V5.83329C49.9972 3.53325 48.1334 1.66938 45.8333 1.66663ZM4.16667 3.33329H45.8333C47.214 3.33329 48.3333 4.45258 48.3333 5.83329V8.33329H1.66667V5.83329C1.66667 4.45258 2.78595 3.33329 4.16667 3.33329ZM25 46.6666C20.2023 46.6549 15.6967 44.3601 12.8658 40.4866C12.6538 40.2025 12.6448 39.8153 12.8433 39.5216C12.8625 39.5016 12.8825 39.48 12.9 39.4591C13.0521 39.2688 13.2831 39.1589 13.5267 39.1608H13.5483C13.8243 39.17 14.0802 39.307 14.2408 39.5316C14.7403 40.2121 15.3037 40.8433 15.9233 41.4166L15.9383 41.43C21.0389 46.1882 28.951 46.1904 34.0542 41.435C34.0642 41.4258 34.0742 41.4166 34.0833 41.4066C35.8888 39.7345 37.1941 37.5934 37.8533 35.2225C37.9228 34.9716 37.8711 34.7026 37.7134 34.4954C37.5558 34.2882 37.3104 34.1665 37.05 34.1666H35.865L35.8525 34.0358L38.1025 31.2941C38.1196 31.2734 38.1355 31.2517 38.15 31.2291L39.1808 30.01L42.4808 34.035L43.125 33.5066L42.4733 34.165H40.4733C40.0805 34.1653 39.7413 34.44 39.6592 34.8241C38.1522 41.7194 32.058 46.6427 25 46.6666ZM19.0467 41.6666H30.99C27.319 43.8888 22.7177 43.8888 19.0467 41.6666ZM45.8333 40H39.4167C40.1794 38.6969 40.7588 37.2948 41.1383 35.8333H42.4717C43.127 35.8333 43.7226 35.4524 43.9975 34.8575C44.2966 34.2418 44.2094 33.5083 43.7742 32.98L40.4742 28.955C40.1556 28.5644 39.6782 28.3379 39.1742 28.3383C38.6706 28.3377 38.1932 28.5627 37.8733 28.9516L36.8225 30.2283C36.8033 30.2525 36.785 30.2766 36.7683 30.3025L34.57 32.9825C34.137 33.5112 34.0505 34.2432 34.3483 34.8583C34.6225 35.4503 35.2143 35.8303 35.8667 35.8333H35.9C35.2958 37.4049 34.3575 38.8265 33.15 40H16.8742C16.4042 39.5526 15.9724 39.0667 15.5833 38.5475C15.1201 37.9055 14.3839 37.5163 13.5925 37.495C12.8551 37.4691 12.1461 37.7808 11.6667 38.3416C11.6475 38.3608 11.6275 38.3825 11.61 38.4033C11.2413 38.8535 11.0412 39.4181 11.0442 40H4.16667C2.78595 40 1.66667 38.8807 1.66667 37.5V9.99996H48.3333V37.5C48.3333 38.8807 47.214 40 45.8333 40Z" fill="#645FCE"/>
<path d="M4.16665 6.66667C4.62689 6.66667 4.99998 6.29357 4.99998 5.83333C4.99998 5.3731 4.62689 5 4.16665 5C3.70641 5 3.33331 5.3731 3.33331 5.83333C3.33331 6.29357 3.70641 6.66667 4.16665 6.66667Z" fill="#645FCE"/>
<path d="M7.50002 6.66667C7.96026 6.66667 8.33336 6.29357 8.33336 5.83333C8.33336 5.3731 7.96026 5 7.50002 5C7.03978 5 6.66669 5.3731 6.66669 5.83333C6.66669 6.29357 7.03978 6.66667 7.50002 6.66667Z" fill="#645FCE"/>
<path d="M10.8333 6.66667C11.2936 6.66667 11.6667 6.29357 11.6667 5.83333C11.6667 5.3731 11.2936 5 10.8333 5C10.3731 5 10 5.3731 10 5.83333C10 6.29357 10.3731 6.66667 10.8333 6.66667Z" fill="#645FCE"/>
<path d="M25 15.0001C17.0665 14.9639 10.2194 20.5533 8.66663 28.3334H7.5333C6.8782 28.3334 6.28275 28.7139 6.00747 29.3084C5.70947 29.9245 5.79664 30.6576 6.2308 31.1867L9.5308 35.2126C9.85086 35.6025 10.3288 35.8286 10.8333 35.8286C11.3378 35.8286 11.8157 35.6025 12.1358 35.2126L15.4375 31.1851C15.8704 30.6563 15.9569 29.9243 15.6591 29.3092C15.3841 28.7144 14.7886 28.3336 14.1333 28.3334H13.8166C15.1075 24.0051 18.7807 20.8108 23.2463 20.1332C27.7118 19.4555 32.1673 21.4163 34.6841 25.1667C35.1299 25.839 35.87 26.258 36.6758 26.2942C37.4536 26.3348 38.204 26.0013 38.695 25.3967L38.6991 25.3917L38.7033 25.3859C39.4052 24.5354 39.4639 23.3244 38.8475 22.4101C35.7647 17.776 30.5658 14.994 25 15.0001ZM37.4108 24.3334C37.2529 24.5331 37.0075 24.6433 36.7533 24.6284C36.4741 24.6145 36.2185 24.4676 36.0658 24.2334C33.0691 19.7715 27.6864 17.5451 22.4134 18.5866C17.1405 19.6282 13.0085 23.7339 11.9333 29.0001C11.8832 29.2453 11.9461 29.5 12.1044 29.6938C12.2627 29.8877 12.4997 30.0001 12.75 30.0001H14.135L14.1475 30.1317L10.8191 34.1567L7.51913 30.1317L6.87497 30.6601L7.5333 30.0001H9.36663C9.77649 30.0002 10.1256 29.7023 10.19 29.2976C11.1613 23.206 15.7649 18.3312 21.791 17.0133C27.8171 15.6954 34.0353 18.2034 37.4608 23.3334C37.6641 23.6394 37.6452 24.0419 37.4141 24.3276L38.0591 24.8559L37.4108 24.3334Z" fill="#645FCE"/>
<path d="M4.16665 14.1667H5.83332C6.29355 14.1667 6.66665 13.7936 6.66665 13.3333C6.66665 12.8731 6.29355 12.5 5.83332 12.5H4.16665C3.70641 12.5 3.33331 12.8731 3.33331 13.3333C3.33331 13.7936 3.70641 14.1667 4.16665 14.1667Z" fill="#645FCE"/>
<path d="M9.16671 14.1667H16.6667C17.1269 14.1667 17.5 13.7936 17.5 13.3333C17.5 12.8731 17.1269 12.5 16.6667 12.5H9.16671C8.70647 12.5 8.33337 12.8731 8.33337 13.3333C8.33337 13.7936 8.70647 14.1667 9.16671 14.1667Z" fill="#645FCE"/>
<path d="M11.6666 16.6667C11.6666 16.2065 11.2936 15.8334 10.8333 15.8334H4.16665C3.70641 15.8334 3.33331 16.2065 3.33331 16.6667C3.33331 17.1269 3.70641 17.5 4.16665 17.5H10.8333C11.2936 17.5 11.6666 17.1269 11.6666 16.6667Z" fill="#645FCE"/>
<path d="M45.8333 12.5H44.1666C43.7064 12.5 43.3333 12.8731 43.3333 13.3333C43.3333 13.7936 43.7064 14.1667 44.1666 14.1667H45.8333C46.2936 14.1667 46.6666 13.7936 46.6666 13.3333C46.6666 12.8731 46.2936 12.5 45.8333 12.5Z" fill="#645FCE"/>
<path d="M33.3333 14.1667H40.8333C41.2936 14.1667 41.6667 13.7936 41.6667 13.3333C41.6667 12.8731 41.2936 12.5 40.8333 12.5H33.3333C32.8731 12.5 32.5 12.8731 32.5 13.3333C32.5 13.7936 32.8731 14.1667 33.3333 14.1667Z" fill="#645FCE"/>
<path d="M45.8334 15.8334H39.1667C38.7065 15.8334 38.3334 16.2065 38.3334 16.6667C38.3334 17.1269 38.7065 17.5 39.1667 17.5H45.8334C46.2936 17.5 46.6667 17.1269 46.6667 16.6667C46.6667 16.2065 46.2936 15.8334 45.8334 15.8334Z" fill="#645FCE"/>
</g>
<defs>
<clipPath id="clip0">
<rect width="50" height="50" fill="white"/>
</clipPath>
</defs>
</svg>
