<svg width="50" height="50" viewBox="0 0 50 50" fill="none" xmlns="http://www.w3.org/2000/svg">
<path d="M14.0625 19.5312H12.5V21.0938H14.0625V19.5312Z" fill="#645FCE"/>
<path d="M21.875 19.5312H20.3125V21.0938H21.875V19.5312Z" fill="#645FCE"/>
<path d="M47.7671 28.1329L44.7148 27.6969C44.5696 27.2701 44.3982 26.8526 44.2015 26.4469L46.0484 23.9844C46.1612 23.834 46.2159 23.6479 46.2026 23.4603C46.1892 23.2728 46.1087 23.0963 45.9757 22.9633L42.6609 19.6485C42.5335 19.522 42.3661 19.4439 42.1874 19.4274V11.9071C42.9184 11.3218 43.5085 10.5798 43.9142 9.73591C44.3198 8.89198 44.5307 7.96767 44.5312 7.0313C44.5383 5.84729 44.2055 4.68612 43.5722 3.68569C42.9389 2.68527 42.0317 1.88764 40.9585 1.38755C40.8395 1.33133 40.7081 1.30611 40.5767 1.31423C40.4453 1.32236 40.3181 1.36357 40.2068 1.43403C40.0956 1.50449 40.004 1.60192 39.9405 1.71726C39.877 1.83261 39.8437 1.96213 39.8437 2.0938V6.4688L38.2812 6.98989L36.7187 6.4688V2.0938C36.7181 1.9624 36.6844 1.83326 36.6207 1.71833C36.557 1.60341 36.4653 1.50641 36.3542 1.43631C36.243 1.36622 36.116 1.32529 35.9849 1.31731C35.8537 1.30933 35.7226 1.33456 35.6038 1.39067C34.5311 1.89054 33.6243 2.68768 32.991 3.6875C32.3577 4.68732 32.0246 5.84782 32.0312 7.0313C32.0316 7.96767 32.2425 8.89198 32.6482 9.73591C33.0539 10.5798 33.644 11.3218 34.3749 11.9071V17.1875H32.0312C31.8432 17.1875 31.6615 17.2553 31.5194 17.3784C31.3773 17.5015 31.2844 17.6718 31.2577 17.8579L30.7523 21.3961L32.2991 21.6172L32.7085 18.75H36.0413L36.4507 21.6172C36.472 21.7658 36.5357 21.905 36.634 22.0184C36.7324 22.1317 36.8613 22.2143 37.0054 22.2563C37.6566 22.4444 38.2853 22.703 38.8804 23.0274C39.0121 23.0996 39.1617 23.1323 39.3115 23.1216C39.4613 23.111 39.6048 23.0574 39.7249 22.9672L42.0382 21.2329L44.3945 23.5891L42.6562 25.9024C42.566 26.0225 42.5124 26.166 42.5018 26.3158C42.4911 26.4656 42.5238 26.6153 42.596 26.7469C42.9204 27.3421 43.179 27.9708 43.3671 28.6219C43.4091 28.766 43.4917 28.8949 43.605 28.9933C43.7184 29.0917 43.8576 29.1553 44.0062 29.1766L46.8734 29.586V32.9188L44.0062 33.3282C43.8576 33.3495 43.7184 33.4131 43.605 33.5115C43.4917 33.6099 43.4091 33.7388 43.3671 33.8829C43.179 34.534 42.9204 35.1627 42.596 35.7579C42.5238 35.8895 42.4911 36.0392 42.5018 36.189C42.5124 36.3388 42.566 36.4823 42.6562 36.6024L44.3905 38.9157L42.0343 41.2719L39.7226 39.5313C39.6025 39.4412 39.4589 39.3876 39.3092 39.3769C39.1594 39.3662 39.0097 39.3989 38.878 39.4711C38.2829 39.7955 37.6542 40.0541 37.003 40.2422C36.859 40.2842 36.7301 40.3668 36.6317 40.4802C36.5333 40.5935 36.4697 40.7328 36.4484 40.8813L36.0413 43.75H32.8124V40.4461C32.8119 39.6208 32.6935 38.7998 32.4609 38.0079C33.9489 38.4435 35.5386 38.3813 36.988 37.8306C38.4375 37.28 39.6675 36.2711 40.491 34.9573C41.3145 33.6435 41.6864 32.0968 41.5502 30.5522C41.414 29.0077 40.7771 27.5499 39.7365 26.4005C38.6958 25.2511 37.3082 24.473 35.7848 24.1845C34.2613 23.896 32.6853 24.1129 31.2964 24.8022C29.9076 25.4915 28.7818 26.6155 28.0903 28.0033C27.3988 29.3911 27.1794 30.9668 27.4655 32.4907C27.4468 32.4829 27.4288 32.4735 27.4101 32.4665L21.0937 29.9399V28.7391C22.1376 28.205 23.0623 27.4645 23.8116 26.5625H25.7812C26.4028 26.5625 26.9989 26.3156 27.4385 25.8761C27.878 25.4365 28.1249 24.8404 28.1249 24.2188V22.5125C28.5803 22.3515 28.9748 22.0538 29.2545 21.66C29.5342 21.2662 29.6854 20.7956 29.6874 20.3125V17.9688C29.6854 17.4858 29.5342 17.0152 29.2545 16.6214C28.9748 16.2276 28.5803 15.9298 28.1249 15.7688V14.8438C28.1249 11.943 26.9726 9.161 24.9214 7.10982C22.8702 5.05864 20.0882 3.9063 17.1874 3.9063C14.2866 3.9063 11.5046 5.05864 9.45344 7.10982C7.40226 9.161 6.24992 11.943 6.24992 14.8438V15.7688C5.79453 15.9298 5.39999 16.2276 5.1203 16.6214C4.84061 17.0152 4.68942 17.4858 4.68742 17.9688V20.3125C4.68742 20.9342 4.93435 21.5303 5.37389 21.9698C5.81343 22.4094 6.40957 22.6563 7.03117 22.6563H8.59367C8.64367 22.6563 8.69211 22.6485 8.74133 22.6454C8.98153 23.9407 9.51572 25.1636 10.3028 26.2201C11.0898 27.2765 12.1088 28.1383 13.2812 28.7391V29.9399L6.96477 32.4665C5.36678 33.0998 3.99665 34.1998 3.03301 35.6232C2.06936 37.0466 1.5569 38.7272 1.56242 40.4461V47.6563C1.56242 47.8635 1.64473 48.0622 1.79124 48.2087C1.93776 48.3552 2.13647 48.4375 2.34367 48.4375H32.0312C32.2384 48.4375 32.4371 48.3552 32.5836 48.2087C32.7301 48.0622 32.8124 47.8635 32.8124 47.6563V45.3125H36.7187C36.9067 45.3126 37.0884 45.2448 37.2304 45.1217C37.3725 44.9986 37.4654 44.8283 37.4921 44.6422L37.928 41.5899C38.3549 41.4447 38.7724 41.2733 39.178 41.0766L41.6405 42.9235C41.791 43.0363 41.9771 43.091 42.1647 43.0777C42.3522 43.0644 42.5287 42.9838 42.6616 42.8508L45.9765 39.536C46.1095 39.403 46.19 39.2266 46.2033 39.039C46.2167 38.8514 46.1619 38.6653 46.0491 38.5149L44.2023 36.0524C44.399 35.6467 44.5704 35.2292 44.7155 34.8024L47.7679 34.3665C47.9537 34.3396 48.1236 34.2467 48.2466 34.1049C48.3695 33.963 48.4373 33.7815 48.4374 33.5938V28.9063C48.4374 28.7183 48.3697 28.5366 48.2466 28.3945C48.1234 28.2525 47.9532 28.1596 47.7671 28.1329ZM39.1734 21.4235C39.1366 21.4055 39.0952 21.3938 39.0585 21.3766V11.7188H37.4999V17.9141L37.4921 17.8579C37.4654 17.6718 37.3725 17.5015 37.2304 17.3784C37.0884 17.2553 36.9067 17.1875 36.7187 17.1875H35.9374V11.5157C35.9374 11.3897 35.907 11.2655 35.8486 11.1538C35.7902 11.0421 35.7057 10.9462 35.6023 10.8743C35.0215 10.4699 34.5398 9.93938 34.1934 9.32237C33.8469 8.70536 33.6446 8.01791 33.6017 7.31157C33.5588 6.60524 33.6763 5.89835 33.9455 5.24393C34.2148 4.5895 34.6286 4.00453 35.1562 3.53286V7.0313C35.1561 7.19533 35.2077 7.35522 35.3036 7.48829C35.3996 7.62136 35.5349 7.72087 35.6905 7.77271L38.0343 8.55396C38.1946 8.60733 38.3678 8.60733 38.528 8.55396L40.8718 7.77271C41.0274 7.72087 41.1628 7.62136 41.2587 7.48829C41.3546 7.35522 41.4062 7.19533 41.4062 7.0313V3.53286C41.9341 4.00451 42.3484 4.58963 42.6179 5.24429C42.8874 5.89895 43.0051 6.60615 42.9621 7.3128C42.9192 8.01945 42.7168 8.70721 42.37 9.32443C42.0233 9.94166 41.5412 10.4723 40.9601 10.8766C40.857 10.9483 40.7726 11.0439 40.7143 11.1551C40.656 11.2664 40.6253 11.3901 40.6249 11.5157V20.3383L39.1734 21.4235ZM28.9062 31.25C28.8976 30.0285 29.2953 28.8387 30.0369 27.8679C30.7784 26.8971 31.8216 26.2004 33.0024 25.8874C34.1832 25.5743 35.4346 25.6627 36.5597 26.1387C37.6847 26.6146 38.6197 27.451 39.2174 28.5164C39.8151 29.5818 40.0416 30.8157 39.8614 32.0239C39.6811 33.2321 39.1044 34.3461 38.2217 35.1907C37.3391 36.0353 36.2008 36.5625 34.9858 36.6893C33.7708 36.8162 32.5481 36.5355 31.5101 35.8915C30.97 35.0263 30.2791 34.265 29.4702 33.6438C29.0986 32.9006 28.9054 32.081 28.9062 31.25ZM25.7812 25H24.8327C25.2135 24.2586 25.4833 23.4652 25.6335 22.6454C25.6827 22.6454 25.7312 22.6563 25.7812 22.6563H26.5624V24.2188C26.5624 24.426 26.4801 24.6247 26.3336 24.7712C26.1871 24.9177 25.9884 25 25.7812 25ZM24.2187 16.4063C23.855 16.4054 23.4964 16.3203 23.1711 16.1576C22.8458 15.995 22.5626 15.7592 22.3437 15.4688L20.9374 13.5938C20.8746 13.5101 20.7957 13.4398 20.7052 13.3872C20.6148 13.3346 20.5147 13.3007 20.4109 13.2875C20.307 13.2748 20.2017 13.2828 20.101 13.3111C20.0002 13.3394 19.9061 13.3874 19.8241 13.4524L17.2023 15.5469C16.5105 16.1005 15.6516 16.4034 14.7655 16.4063H10.1562V15.625C10.1562 13.7602 10.897 11.9718 12.2156 10.6532C13.5342 9.33459 15.3226 8.5938 17.1874 8.5938C19.0522 8.5938 20.8407 9.33459 22.1593 10.6532C23.4779 11.9718 24.2187 13.7602 24.2187 15.625V16.4063ZM28.1249 20.3125C28.1249 20.5197 28.0426 20.7185 27.8961 20.865C27.7496 21.0115 27.5509 21.0938 27.3437 21.0938H25.7812V17.1875H27.3437C27.5509 17.1875 27.7496 17.2699 27.8961 17.4164C28.0426 17.5629 28.1249 17.7616 28.1249 17.9688V20.3125ZM17.1874 5.4688C19.673 5.47149 22.056 6.46007 23.8136 8.21764C25.5712 9.97521 26.5597 12.3582 26.5624 14.8438V15.625H25.7812C25.7812 13.3458 24.8758 11.16 23.2641 9.54835C21.6525 7.93671 19.4666 7.0313 17.1874 7.0313C14.9082 7.0313 12.7224 7.93671 11.1107 9.54835C9.49908 11.16 8.59367 13.3458 8.59367 15.625H7.81242V14.8438C7.81511 12.3582 8.80369 9.97521 10.5613 8.21764C12.3188 6.46007 14.7018 5.47149 17.1874 5.4688ZM7.03117 21.0938C6.82397 21.0938 6.62526 21.0115 6.47875 20.865C6.33223 20.7185 6.24992 20.5197 6.24992 20.3125V17.9688C6.24992 17.7616 6.33223 17.5629 6.47875 17.4164C6.62526 17.2699 6.82397 17.1875 7.03117 17.1875H8.59367V21.0938H7.03117ZM10.1562 21.0938V17.9688H14.7655C16.0069 17.9671 17.2109 17.5447 18.1812 16.7704L20.1741 15.1758L21.0937 16.4063C21.4586 16.8903 21.9306 17.2833 22.4728 17.5544C23.0149 17.8254 23.6125 17.9673 24.2187 17.9688V21.0938C24.2199 22.4852 23.8059 23.8453 23.0296 25H17.1874V26.5625H21.5968C20.5651 27.3968 19.3182 27.9217 18.0005 28.0766C16.6827 28.2315 15.3481 28.01 14.151 27.4378C12.954 26.8656 11.9435 25.9661 11.2365 24.8433C10.5295 23.7206 10.1549 22.4206 10.1562 21.0938ZM17.1874 29.6875C17.9803 29.6856 18.7691 29.5736 19.5312 29.3547V30.4688C19.5312 31.0904 19.2842 31.6865 18.8447 32.1261C18.4052 32.5656 17.809 32.8125 17.1874 32.8125C16.5658 32.8125 15.9697 32.5656 15.5301 32.1261C15.0906 31.6865 14.8437 31.0904 14.8437 30.4688V29.3547C15.6058 29.5736 16.3945 29.6856 17.1874 29.6875ZM31.2499 46.875H26.5624V38.2813H24.9999V46.875H9.37492V38.2813H7.81242V46.875H3.12492V40.4461C3.12037 39.0397 3.53967 37.6646 4.32816 36.5C5.11664 35.3354 6.23772 34.4353 7.54523 33.9172L13.4538 31.554C13.6845 32.3663 14.1739 33.0813 14.8477 33.5903C15.5215 34.0994 16.3429 34.3748 17.1874 34.3748C18.0319 34.3748 18.8533 34.0994 19.5271 33.5903C20.2009 33.0813 20.6903 32.3663 20.921 31.554L26.8296 33.9172C28.1371 34.4353 29.2582 35.3354 30.0467 36.5C30.8352 37.6646 31.2545 39.0397 31.2499 40.4461V46.875Z" fill="#645FCE"/>
<path d="M35.1562 20.3125H33.5938V21.875H35.1562V20.3125Z" fill="#645FCE"/>
<path d="M35.1562 40.625H33.5938V42.1875H35.1562V40.625Z" fill="#645FCE"/>
<path d="M41.5557 37.3269L40.4508 38.4318L41.5557 39.5366L42.6605 38.4318L41.5557 37.3269Z" fill="#645FCE"/>
<path d="M45.3125 30.4688H43.75V32.0312H45.3125V30.4688Z" fill="#645FCE"/>
<path d="M41.5562 22.964L40.4513 24.0688L41.5562 25.1737L42.661 24.0688L41.5562 22.964Z" fill="#645FCE"/>
</svg>
