<svg width="50" height="50" viewBox="0 0 50 50" fill="none" xmlns="http://www.w3.org/2000/svg">
<path d="M22.9242 4.63096H45.4061C45.8101 4.63096 46.1376 4.30352 46.1376 3.89951C46.1376 3.49551 45.8101 3.16797 45.4061 3.16797H22.9242C22.5202 3.16797 22.1926 3.49541 22.1926 3.89951C22.1926 4.30352 22.5202 4.63096 22.9242 4.63096Z" fill="#645FCE"/>
<path d="M45.4061 6.79541H22.9242C22.5202 6.79541 22.1926 7.12285 22.1926 7.52695C22.1926 7.93096 22.5202 8.2584 22.9242 8.2584H45.4061C45.8101 8.2584 46.1376 7.93096 46.1376 7.52695C46.1376 7.12295 45.8101 6.79541 45.4061 6.79541Z" fill="#645FCE"/>
<path d="M22.9242 11.8861H38.1797C38.5838 11.8861 38.9113 11.5586 38.9113 11.1546C38.9113 10.7506 38.5838 10.4231 38.1797 10.4231H22.9242C22.5202 10.4231 22.1926 10.7505 22.1926 11.1546C22.1926 11.5586 22.5202 11.8861 22.9242 11.8861Z" fill="#645FCE"/>
<path d="M45.4061 20.6411H22.9242C22.5202 20.6411 22.1926 20.9686 22.1926 21.3726C22.1926 21.7766 22.5202 22.104 22.9242 22.104H45.4061C45.8101 22.104 46.1376 21.7766 46.1376 21.3726C46.1376 20.9686 45.8101 20.6411 45.4061 20.6411Z" fill="#645FCE"/>
<path d="M45.4061 24.2683H22.9242C22.5202 24.2683 22.1926 24.5958 22.1926 24.9999C22.1926 25.404 22.5202 25.7314 22.9242 25.7314H45.4061C45.8101 25.7314 46.1376 25.404 46.1376 24.9999C46.1376 24.5958 45.8101 24.2683 45.4061 24.2683Z" fill="#645FCE"/>
<path d="M22.9242 29.3589H38.1797C38.5838 29.3589 38.9113 29.0314 38.9113 28.6274C38.9113 28.2234 38.5838 27.896 38.1797 27.896H22.9242C22.5202 27.896 22.1926 28.2234 22.1926 28.6274C22.1926 29.0314 22.5202 29.3589 22.9242 29.3589Z" fill="#645FCE"/>
<path d="M19.41 36.0317C18.9977 35.6691 18.469 35.4892 17.9209 35.5238C17.3728 35.5589 16.8713 35.8053 16.5086 36.2176L16.1373 36.6399C14.8411 35.5825 13.1889 34.946 11.3896 34.946C7.23921 34.946 3.86255 38.3226 3.86255 42.473C3.86255 46.6234 7.23911 50 11.3896 50C15.5401 50 18.9167 46.6234 18.9167 42.473C18.9167 41.6558 18.7829 40.8701 18.5405 40.1331L19.5959 38.9332C19.9586 38.5209 20.139 37.992 20.104 37.444C20.0687 36.896 19.8223 36.3944 19.41 36.0317ZM11.3896 48.537C8.04585 48.537 5.32564 45.8167 5.32564 42.473C5.32564 39.1294 8.04595 36.409 11.3896 36.409C12.8191 36.409 14.1334 36.9076 15.1711 37.7382L12.0728 41.2606L10.9611 39.9636C10.6038 39.5467 10.1054 39.294 9.55796 39.2517C9.01118 39.2092 8.47935 39.3831 8.06235 39.7405C7.20171 40.4783 7.10171 41.7786 7.8394 42.6393L10.4918 45.7338C10.8793 46.186 11.443 46.4476 12.0385 46.4517C12.044 46.4518 12.0493 46.4518 12.0528 46.4518C12.6436 46.4518 13.2061 46.1974 13.5963 45.7538L17.3688 41.4651C17.4243 41.793 17.4538 42.1296 17.4538 42.473C17.4536 45.8167 14.7333 48.537 11.3896 48.537ZM18.4973 37.9669L12.4977 44.7876C12.3858 44.9147 12.2248 44.988 12.0555 44.9888C12.0533 44.9888 12.0509 44.9887 12.0487 44.9887C11.877 44.9877 11.7144 44.9123 11.6026 44.7818L8.95005 41.6873C8.73735 41.4391 8.76626 41.0641 9.0144 40.8513C9.1228 40.7585 9.25786 40.7087 9.39907 40.7087C9.4145 40.7087 9.42993 40.7092 9.44546 40.7105C9.60337 40.7226 9.74702 40.7956 9.85015 40.9158L11.5101 42.8524C11.648 43.0132 11.8489 43.1065 12.0608 43.1079C12.2752 43.1109 12.4748 43.0187 12.6147 42.8594L17.607 37.1838C17.7116 37.065 17.8562 36.9939 18.0142 36.9838C18.1719 36.9733 18.3248 37.0257 18.4436 37.1302C18.5625 37.2349 18.6335 37.3794 18.6437 37.5375C18.654 37.6955 18.6019 37.8479 18.4973 37.9669Z" fill="#645FCE"/>
<path d="M45.4061 38.114H22.9242C22.5202 38.114 22.1926 38.4415 22.1926 38.8455C22.1926 39.2495 22.5202 39.5769 22.9242 39.5769H45.4061C45.8101 39.5769 46.1376 39.2495 46.1376 38.8455C46.1376 38.4415 45.8101 38.114 45.4061 38.114Z" fill="#645FCE"/>
<path d="M45.4061 41.7415H22.9242C22.5202 41.7415 22.1926 42.0689 22.1926 42.4729C22.1926 42.8769 22.5202 43.2044 22.9242 43.2044H45.4061C45.8101 43.2044 46.1376 42.877 46.1376 42.4729C46.1376 42.069 45.8101 41.7415 45.4061 41.7415Z" fill="#645FCE"/>
<path d="M38.1797 45.3689H22.9242C22.5202 45.3689 22.1926 45.6963 22.1926 46.1003C22.1926 46.5043 22.5202 46.8319 22.9242 46.8319H38.1797C38.5838 46.8319 38.9113 46.5044 38.9113 46.1003C38.9113 45.6962 38.5838 45.3689 38.1797 45.3689Z" fill="#645FCE"/>
<path d="M19.41 1.08564C18.9977 0.723047 18.469 0.542969 17.9209 0.577637C17.3728 0.612793 16.8713 0.85918 16.5086 1.27148L16.1382 1.69268C14.842 0.635352 13.1889 0 11.3896 0C9.52583 0 7.73726 0.686328 6.35347 1.93271C6.05327 2.20312 6.02915 2.66563 6.29956 2.96592C6.56987 3.26611 7.03247 3.29023 7.33267 3.01992C8.44722 2.01602 9.88804 1.46309 11.3896 1.46309C12.8191 1.46309 14.1334 1.96162 15.171 2.79238L12.0728 6.31465L10.961 5.01758C10.6037 4.60068 10.1053 4.34785 9.55786 4.30566C9.01108 4.26318 8.47925 4.43711 8.06226 4.79443C7.20161 5.53223 7.10161 6.83252 7.83931 7.69316L10.4917 10.7876C10.8792 11.2398 11.4429 11.5015 12.0384 11.5056C12.0439 11.5057 12.0492 11.5057 12.0527 11.5057C12.6435 11.5057 13.206 11.2513 13.5962 10.8076L17.3686 6.51895C17.424 6.84687 17.4536 7.1834 17.4536 7.52685C17.4536 10.8705 14.7333 13.5908 11.3896 13.5908C8.04595 13.5908 5.32564 10.8705 5.32564 7.52685C5.32564 6.80967 5.44937 6.10801 5.69351 5.4415C5.83247 5.06211 5.63755 4.64199 5.25815 4.50303C4.87896 4.36416 4.45864 4.55898 4.31968 4.93838C4.01636 5.7666 3.86255 6.6375 3.86255 7.52685C3.86255 11.6772 7.23911 15.0538 11.3896 15.0538C15.5401 15.0538 18.9167 11.6772 18.9167 7.52685C18.9167 6.70928 18.7845 5.92227 18.5423 5.18477L19.5959 3.98701C19.9586 3.57471 20.139 3.0459 20.104 2.49785C20.0687 1.9499 19.8223 1.44834 19.41 1.08564ZM18.4973 3.0208L12.4977 9.8415C12.3858 9.96865 12.2248 10.0419 12.0555 10.0428C12.0533 10.0428 12.0509 10.0427 12.0487 10.0427C11.877 10.0416 11.7144 9.96621 11.6026 9.83574L8.95005 6.74121C8.73735 6.49307 8.76626 6.11807 9.0144 5.90527C9.1228 5.8124 9.25786 5.7626 9.39907 5.7626C9.4145 5.7626 9.42993 5.76318 9.44546 5.76445C9.60337 5.77656 9.74702 5.84951 9.85015 5.96973L11.5101 7.90635C11.648 8.06719 11.8489 8.16045 12.0608 8.16182C12.2752 8.16025 12.4748 8.07256 12.6147 7.91338L17.607 2.23779C17.7116 2.11895 17.8562 2.04785 18.0142 2.03779C18.1719 2.02764 18.3248 2.07969 18.4436 2.18418C18.5625 2.28887 18.6335 2.4334 18.6437 2.5915C18.654 2.74941 18.6019 2.90186 18.4973 3.0208Z" fill="#645FCE"/>
<path d="M19.41 18.5588C18.9977 18.1962 18.469 18.0157 17.9208 18.0509C17.3728 18.086 16.8713 18.3324 16.5086 18.7447L16.1368 19.1675C14.8407 18.1101 13.1889 17.4731 11.3896 17.4731C7.23921 17.4731 3.86255 20.8497 3.86255 25.0001C3.86255 29.1505 7.23911 32.5271 11.3896 32.5271C15.5401 32.5271 18.9166 29.1505 18.9166 25.0001C18.9166 24.1827 18.7838 23.3961 18.5415 22.6588L19.5958 21.4602C19.9585 21.0479 20.1389 20.519 20.1039 19.971C20.0687 19.423 19.8223 18.9215 19.41 18.5588ZM18.4973 20.4939L15.3852 24.0318C15.1184 24.3351 15.148 24.7974 15.4513 25.0642C15.7546 25.3312 16.2168 25.3015 16.4837 24.9981L17.3684 23.9924C17.4238 24.3202 17.4536 24.6567 17.4536 25.0001C17.4536 28.3438 14.7333 31.0641 11.3896 31.0641C8.04595 31.0641 5.32554 28.3438 5.32554 25.0001C5.32554 21.6564 8.04585 18.9361 11.3895 18.9361C12.819 18.9361 14.1332 19.435 15.1708 20.2655L12.0727 23.7877L10.961 22.4907C10.6037 22.0738 10.1053 21.821 9.55786 21.7788C9.01108 21.7358 8.47925 21.9102 8.06226 22.2676C7.20161 23.0054 7.10161 24.3057 7.83931 25.1663L10.4917 28.2608C10.8792 28.713 11.4429 28.9746 12.0384 28.9787C12.0439 28.9788 12.0492 28.9788 12.0527 28.9788C12.6435 28.9788 13.206 28.7244 13.5962 28.2809L14.2755 27.5087C14.5423 27.2054 14.5128 26.7431 14.2094 26.4763C13.9061 26.2092 13.4438 26.2391 13.177 26.5423L12.4977 27.3146C12.3859 27.4416 12.2251 27.5149 12.0553 27.5158C12.0532 27.5158 12.0509 27.5157 12.0487 27.5157C11.877 27.5147 11.7144 27.4393 11.6026 27.3087L8.95005 24.2142C8.73735 23.966 8.76626 23.591 9.0144 23.3782C9.13472 23.2752 9.28823 23.2247 9.44556 23.2374C9.60347 23.2495 9.74712 23.3225 9.85024 23.4427L11.5102 25.3793C11.6481 25.5401 11.849 25.6334 12.0609 25.6348H12.0656C12.2758 25.6348 12.4759 25.5443 12.6148 25.3864L17.6071 19.7108C17.7117 19.592 17.8563 19.5209 18.0143 19.5108C18.172 19.5005 18.3249 19.5527 18.4437 19.6572C18.5626 19.7619 18.6336 19.9064 18.6438 20.0646C18.654 20.2226 18.6019 20.375 18.4973 20.4939Z" fill="#645FCE"/>
</svg>
