<svg width="50" height="50" viewBox="0 0 50 50" fill="none" xmlns="http://www.w3.org/2000/svg">
<path d="M25.0275 22.6812C24.107 22.6812 23.3608 23.4273 23.3608 24.3479C23.3607 25.0134 23.7518 25.5861 24.3158 25.8533V27.8794C24.3158 28.2724 24.6343 28.591 25.0274 28.591C25.4205 28.591 25.739 28.2725 25.739 27.8794V25.8533C26.3031 25.5861 26.6942 25.0134 26.6942 24.3479C26.6942 23.4273 25.948 22.6812 25.0275 22.6812Z" fill="#645FCE"/>
<path d="M42.7869 10.8545C39.7235 9.64228 37.2921 7.40967 35.9404 4.56807C35.5728 3.79531 34.7783 3.2959 33.9161 3.2959H16.0839C15.2218 3.2959 14.4272 3.79521 14.0596 4.56807C12.7081 7.40967 10.2765 9.64228 7.21316 10.8545C6.35388 11.1944 5.79871 12.0136 5.79871 12.9412V17.2783C5.79871 22.9638 7.45662 28.5801 10.5932 33.5203C13.7603 38.5089 18.3496 42.6779 23.8645 45.5766L23.9544 45.6238C24.2818 45.7959 24.6409 45.8819 25.0001 45.8819C25.3591 45.8819 25.7182 45.7959 26.0455 45.6239L26.1356 45.5766C31.6507 42.6778 36.2398 38.5089 39.407 33.5203C42.5435 28.58 44.2014 22.9637 44.2014 17.2783V12.9412C44.2014 12.0135 43.6461 11.1944 42.7869 10.8545ZM42.7783 17.2784C42.7783 22.6932 41.197 28.0457 38.2055 32.7576C35.1715 37.5365 30.7687 41.5337 25.4737 44.3169L25.3836 44.3642C25.1434 44.4905 24.8567 44.4904 24.6165 44.3642L24.5266 44.317C19.2314 41.5338 14.8287 37.5366 11.7945 32.7576C8.803 28.0458 7.22175 22.6932 7.22175 17.2783V12.9412C7.22175 12.6013 7.4239 12.3016 7.73669 12.1778C11.1361 10.8327 13.838 8.34727 15.3447 5.17939C15.4776 4.8998 15.7677 4.71914 16.0838 4.71914H33.9162C34.2322 4.71914 34.5222 4.8998 34.6552 5.17939C36.1621 8.34727 38.864 10.8327 42.2634 12.1779C42.5761 12.3017 42.7783 12.6014 42.7783 12.9413V17.2784Z" fill="#645FCE"/>
<path d="M46.3547 24.0311C45.9714 23.9443 45.5904 24.1849 45.5038 24.5683C43.3366 34.1559 36.7363 42.4706 27.3948 47.3804L25.224 48.5215C25.0839 48.5951 24.9165 48.5951 24.7764 48.5215L22.6056 47.3804C13.2495 42.4629 6.64582 34.1338 4.48772 24.5289C4.40168 24.1455 4.02082 23.9044 3.63752 23.9906C3.25412 24.0768 3.01311 24.4574 3.09924 24.8408C5.34885 34.8536 12.2173 43.5281 21.9435 48.6401L24.1143 49.7811C24.3917 49.9268 24.6959 49.9998 25.0002 49.9998C25.3044 49.9998 25.6088 49.9268 25.8862 49.781L28.057 48.64C37.7678 43.536 44.6328 34.8766 46.892 24.8819C46.9785 24.4986 46.738 24.1177 46.3547 24.0311Z" fill="#645FCE"/>
<path d="M46.0083 8.14229C42.2086 7.74141 39.2209 5.07432 38.7427 1.65654C38.6106 0.712109 37.799 0 36.8548 0H13.1454C12.2014 0 11.3898 0.712109 11.2577 1.65654C10.7793 5.07441 7.79164 7.74141 3.99203 8.14229C3.02924 8.24385 2.30316 9.05723 2.30316 10.0342V17.6752C2.30316 18.7855 2.36068 19.9081 2.47416 21.0118C2.51185 21.378 2.82084 21.6507 3.18119 21.6507C3.20551 21.6507 3.23011 21.6494 3.25482 21.6469C3.64574 21.6067 3.93011 21.2572 3.88988 20.8663C3.78138 19.8107 3.72631 18.7371 3.72631 17.6752V10.0342C3.72631 9.7915 3.90863 9.58203 4.14135 9.55752C8.59213 9.08799 12.098 5.92002 12.6671 1.85371C12.7021 1.6042 12.9032 1.42314 13.1454 1.42314H36.8547C37.097 1.42314 37.2983 1.6042 37.3331 1.85371C37.9021 5.92002 41.408 9.08789 45.8588 9.55752C46.0915 9.58203 46.2739 9.7915 46.2739 10.0342V17.6752C46.2739 18.7259 46.22 19.7884 46.1137 20.8334C46.074 21.2243 46.3587 21.5735 46.7496 21.6133C47.1404 21.6533 47.4898 21.3683 47.5296 20.9773C47.6408 19.8848 47.697 18.7738 47.697 17.6752V10.0342C47.6971 9.05723 46.9711 8.24385 46.0083 8.14229Z" fill="#645FCE"/>
<path d="M33.1504 17.7603H31.9804V14.3636C31.9804 10.5297 28.8613 7.41064 25.0273 7.41064C21.1934 7.41064 18.0743 10.5297 18.0743 14.3636V17.7603H16.9044C15.6565 17.7603 14.6413 18.7755 14.6413 20.0233V30.2117C14.6413 31.4596 15.6565 32.4748 16.9044 32.4748H33.1504C34.3982 32.4748 35.4135 31.4596 35.4135 30.2117V20.0233C35.4135 18.7755 34.3982 17.7603 33.1504 17.7603ZM19.4975 14.3637C19.4975 11.3146 21.9782 8.83389 25.0274 8.83389C28.0766 8.83389 30.5573 11.3146 30.5573 14.3637V17.7604H19.4975V14.3637ZM33.9903 30.2117C33.9903 30.6748 33.6135 31.0517 33.1504 31.0517H16.9044C16.4412 31.0517 16.0644 30.6748 16.0644 30.2117V20.0233C16.0644 19.5603 16.4413 19.1834 16.9044 19.1834H33.1504C33.6135 19.1834 33.9903 19.5602 33.9903 20.0233V30.2117Z" fill="#645FCE"/>
</svg>
