<svg width="50" height="50" viewBox="0 0 50 50" fill="none" xmlns="http://www.w3.org/2000/svg">
<g clip-path="url(#clip0)">
<path d="M15.5919 29.6757C15.9436 30.2065 16.129 30.82 16.129 31.4516C16.129 33.2307 14.6823 34.6774 12.9032 34.6774C12.2716 34.6774 11.6581 34.4919 11.1273 34.1403L10.237 35.4854C11.0324 36.0119 11.9542 36.2903 12.9032 36.2903C15.5718 36.2903 17.7419 34.1202 17.7419 31.4516C17.7419 30.5026 17.4635 29.5808 16.9371 28.7845L15.5919 29.6757Z" fill="#645FCE"/>
<path d="M12.9032 28.2258C13.5348 28.2258 14.1491 28.4113 14.6784 28.7621L15.5695 27.4178C14.7748 26.8913 13.8534 26.6129 12.9032 26.6129C10.2346 26.6129 8.06451 28.783 8.06451 31.4516C8.06451 32.4006 8.34291 33.3225 8.86939 34.1187L10.2145 33.2283C9.86289 32.6967 9.67742 32.0832 9.67742 31.4516C9.67742 29.6725 11.1241 28.2258 12.9032 28.2258Z" fill="#645FCE"/>
<path d="M29.0323 33.871V38.7097H32.2581V37.0968H30.6452V33.871H29.0323Z" fill="#645FCE"/>
<path d="M29.8387 29.0323C27.7978 29.0323 25.8041 29.7435 24.2251 31.0355L25.2477 32.2841C26.329 31.3985 27.6509 30.8516 29.0323 30.696V32.2582H30.6452V30.6929C34.0041 31.0662 36.6758 33.7387 37.0491 37.0969H35.4839V38.7098H37.046C36.8904 40.0919 36.3435 41.413 35.4579 42.4951L36.7058 43.517C37.9977 41.9379 38.7097 39.9443 38.7097 37.9033C38.7097 33.0122 34.7298 29.0323 29.8387 29.0323Z" fill="#645FCE"/>
<path d="M30.6452 45.1105V43.5484H29.0323V45.1136C25.6734 44.7403 23.0016 42.0678 22.6283 38.7097H24.1935V37.0968H22.6314C22.787 35.7146 23.3339 34.3935 24.2195 33.3114L22.9717 32.2896C21.6797 33.8686 20.9677 35.8623 20.9677 37.9032C20.9677 42.7943 24.9476 46.7742 29.8387 46.7742C31.8796 46.7742 33.8733 46.063 35.4524 44.771L34.4297 43.5224C33.3484 44.408 32.0273 44.9549 30.6452 45.1105Z" fill="#645FCE"/>
<path d="M45.1613 37.0968H43.5484V14.5162H38.7097V29.7065C38.2171 29.1733 37.6776 28.6862 37.0968 28.2483V18.5484H32.2581V26.0499C31.7332 25.9428 31.1921 25.8833 30.6452 25.8467V22.5807H25.8065V26.5122C24.9953 26.8 24.2243 27.1717 23.5025 27.6179C23.3402 27.1686 23.1615 26.7276 22.9453 26.3066L24.2203 24.5208L19.8341 20.133L18.0475 21.4088C17.5096 21.134 16.9477 20.9016 16.3669 20.7154L16.0066 18.5484H9.80067L9.44037 20.7154C8.85955 20.9016 8.29763 21.134 7.75973 21.4088L5.97357 20.133L1.58691 24.5208L2.86196 26.3066C2.58632 26.8437 2.35399 27.4056 2.16773 27.9872L0 28.3491V34.5542L2.16694 34.9153C2.3532 35.4969 2.58632 36.0588 2.86117 36.596L1.58613 38.3813L5.97239 42.7696L7.75895 41.4937C8.29684 41.7686 8.85876 42.0009 9.43958 42.1872L9.79988 44.3549H16.0058L16.3661 42.188C16.9469 42.0017 17.5088 41.7694 18.0467 41.4945L18.3692 41.7249C19.975 46.5258 24.505 50.0001 29.8387 50.0001C36.2372 50.0001 41.4767 45.0042 41.8945 38.7097H50V8.06458H45.1613V37.0968ZM40.3226 16.1291H41.9355V37.0968H41.8945C41.7693 35.2122 41.2153 33.4461 40.3226 31.8943V16.1291ZM33.871 20.1614H35.4839V27.2131C34.9684 26.9394 34.4274 26.7106 33.871 26.5129V20.1614ZM27.4194 24.1936H29.0323V25.8475C28.4853 25.8841 27.9443 25.9435 27.4194 26.051V24.1936ZM17.7057 39.8454C17.0009 40.2494 16.2405 40.5636 15.4427 40.7798L14.9434 40.9153L14.6386 42.742H11.1671L10.8623 40.9153L10.363 40.7798C9.56598 40.5636 8.80481 40.2494 8.09996 39.8454L7.65066 39.5879L6.14683 40.6629L3.69125 38.2081L4.76625 36.7027L4.50873 36.2534C4.1055 35.5501 3.79048 34.7897 3.5743 33.9911L3.43963 33.4918L1.6129 33.1878V29.7155L3.43963 29.4115L3.57509 28.9122C3.79284 28.1129 4.10629 27.3517 4.50951 26.65L4.76704 26.2007L3.69204 24.6953L6.14762 22.2405L7.65145 23.3155L8.10074 23.058C8.8056 22.6539 9.56598 22.3397 10.3638 22.1235L10.8631 21.9881L11.1679 20.1614H14.6394L14.9442 21.9881L15.4435 22.1235C16.2405 22.3397 17.0016 22.6539 17.7065 23.058L18.1558 23.3155L19.6596 22.2405L22.1152 24.6953L21.0402 26.2007L21.2977 26.65C21.6458 27.2564 21.9136 27.9136 22.1243 28.5944C21.6525 28.9862 21.2194 29.421 20.8122 29.8781C20.0774 26.1822 16.8114 23.3872 12.9032 23.3872C8.45632 23.3872 4.83871 27.0048 4.83871 31.4517C4.83871 35.8986 8.45632 39.5162 12.9032 39.5162C14.6646 39.5162 16.359 38.9204 17.7427 37.8816C17.7427 37.8887 17.7419 37.8962 17.7419 37.9033C17.7419 38.5282 17.8042 39.137 17.8959 39.7363L17.7057 39.8454ZM19.3348 31.9266C18.7276 32.9905 18.2727 34.1502 18.0097 35.3831C16.7918 36.9614 14.8977 37.9033 12.9032 37.9033C9.34586 37.9033 6.45161 35.009 6.45161 31.4517C6.45161 27.8943 9.34586 25.0001 12.9032 25.0001C16.4606 25.0001 19.3548 27.8943 19.3548 31.4517C19.3548 31.6123 19.3458 31.7695 19.3348 31.9266ZM29.8387 48.3872C24.0581 48.3872 19.3548 43.6839 19.3548 37.9033C19.3548 32.1227 24.0581 27.4194 29.8387 27.4194C35.6193 27.4194 40.3226 32.1227 40.3226 37.9033C40.3226 43.6839 35.6193 48.3872 29.8387 48.3872ZM46.7742 9.67748H48.3871V37.0968H46.7742V9.67748Z" fill="#645FCE"/>
<path d="M45.1613 0V1.6129H46.8943L41.1889 6.17755L38.7097 3.69834L34.9074 7.50063C34.592 7.34903 34.2435 7.25806 33.871 7.25806C32.5373 7.25806 31.4516 8.3437 31.4516 9.67742C31.4516 10.0944 31.5678 10.4815 31.754 10.8241L27.5387 15.508C27.2532 15.3895 26.9413 15.3226 26.6129 15.3226C26.5975 15.3226 26.5838 15.3265 26.5684 15.3273L23.3257 6.67921C23.8518 6.23543 24.1935 5.57979 24.1935 4.83871C24.1935 3.50499 23.1079 2.41935 21.7742 2.41935C20.4405 2.41935 19.3548 3.50499 19.3548 4.83871C19.3548 5.01276 19.3749 5.18208 19.4104 5.34668L12.7993 9.41438C12.3846 9.07967 11.8637 8.87097 11.2903 8.87097C10.2405 8.87097 9.35334 9.54747 9.01942 10.4839H4.69026C4.35634 9.54747 3.46916 8.87097 2.41935 8.87097C1.08564 8.87097 0 9.95661 0 11.2903C0 12.624 1.08564 13.7097 2.41935 13.7097C3.46916 13.7097 4.35634 13.0332 4.69026 12.0968H9.02021C9.35413 13.0332 10.2413 13.7097 11.2911 13.7097C12.6248 13.7097 13.7105 12.624 13.7105 11.2903C13.7105 11.1163 13.6904 10.947 13.6549 10.7824L20.266 6.71465C20.6799 7.04936 21.2009 7.25806 21.7742 7.25806C21.7896 7.25806 21.8033 7.25413 21.8187 7.25334L25.0614 15.9006C24.5353 16.3452 24.1935 17.0009 24.1935 17.7419C24.1935 19.0757 25.2792 20.1613 26.6129 20.1613C27.9466 20.1613 29.0323 19.0757 29.0323 17.7419C29.0323 17.3249 28.9169 16.9378 28.7298 16.5953L32.9452 11.9113C33.2307 12.0298 33.5426 12.0968 33.871 12.0968C35.2047 12.0968 36.2903 11.0111 36.2903 9.67742C36.2903 9.30491 36.1994 8.95642 36.0478 8.641L38.7097 5.97908L41.0692 8.33858L48.3871 2.48472V4.83871H50V0H45.1613ZM2.41935 12.0968C1.97439 12.0968 1.6129 11.7345 1.6129 11.2903C1.6129 10.8461 1.97439 10.4839 2.41935 10.4839C2.86432 10.4839 3.22581 10.8461 3.22581 11.2903C3.22581 11.7345 2.86432 12.0968 2.41935 12.0968ZM11.2903 12.0968C10.8454 12.0968 10.4839 11.7345 10.4839 11.2903C10.4839 10.8461 10.8454 10.4839 11.2903 10.4839C11.7353 10.4839 12.0968 10.8461 12.0968 11.2903C12.0968 11.7345 11.7353 12.0968 11.2903 12.0968ZM20.9677 4.83871C20.9677 4.39453 21.3292 4.03226 21.7742 4.03226C22.2192 4.03226 22.5806 4.39453 22.5806 4.83871C22.5806 5.28289 22.2192 5.64516 21.7742 5.64516C21.3292 5.64516 20.9677 5.28289 20.9677 4.83871ZM26.6129 18.5484C26.1679 18.5484 25.8065 18.1861 25.8065 17.7419C25.8065 17.2978 26.1679 16.9355 26.6129 16.9355C27.0579 16.9355 27.4194 17.2978 27.4194 17.7419C27.4194 18.1861 27.0579 18.5484 26.6129 18.5484ZM33.871 10.4839C33.426 10.4839 33.0645 10.1216 33.0645 9.67742C33.0645 9.23324 33.426 8.87097 33.871 8.87097C34.3159 8.87097 34.6774 9.23324 34.6774 9.67742C34.6774 10.1216 34.3159 10.4839 33.871 10.4839Z" fill="#645FCE"/>
</g>
<defs>
<clipPath id="clip0">
<rect width="50" height="50" fill="white"/>
</clipPath>
</defs>
</svg>
