<?xml version="1.0" encoding="UTF-8" standalone="no"?>
<svg
   viewBox="0 0 500 500"
   version="1.1"
   id="svg_null"
   sodipodi:docname="logo.svg"
   inkscape:version="1.1 (c4e8f9ed74, 2021-05-24)"
   xmlns:inkscape="http://www.inkscape.org/namespaces/inkscape"
   xmlns:sodipodi="http://sodipodi.sourceforge.net/DTD/sodipodi-0.dtd"
   xmlns="http://www.w3.org/2000/svg"
   xmlns:svg="http://www.w3.org/2000/svg">
  <defs
     id="defs38" />
  <sodipodi:namedview
     id="namedview36"
     pagecolor="#ffffff"
     bordercolor="#666666"
     borderopacity="1.0"
     inkscape:pageshadow="2"
     inkscape:pageopacity="0.0"
     inkscape:pagecheckerboard="0"
     showgrid="false"
     inkscape:snap-global="true"
     inkscape:zoom="1.32"
     inkscape:cx="249.62121"
     inkscape:cy="250"
     inkscape:window-width="1920"
     inkscape:window-height="1006"
     inkscape:window-x="0"
     inkscape:window-y="0"
     inkscape:window-maximized="1"
     inkscape:current-layer="svg_null" />
  <g
     id="root"
     stroke="none"
     stroke-width="1"
     fill="none"
     fill-rule="evenodd"
     transform="translate(-0.75757576,-1.5151515)">
    <rect
       id="background"
       fill="#ffffff"
       x="0"
       y="0"
       width="500"
       height="500" />
    <g
       id="Group"
       transform="translate(40,309)">
      <rect
         id="Rectangle-82"
         x="0"
         y="0"
         width="420"
         height="45" />
    </g>
    <g
       id="Group-2"
       transform="translate(40,362)">
      <rect
         id="Rectangle"
         x="0"
         y="0"
         width="420"
         height="32" />
      <text
         id="captionText"
         font-family="Dosis"
         font-size="25px"
         font-weight="500"
         letter-spacing="2.5"
         fill="#000000"
         data-text-alignment="C"
         font-style="normal"><tspan
           x="210"
           y="140"
           id="tspan9" /></text>
    </g>
    <g
       id="shape"
       transform="translate(149,109)">
      <polygon
         id="shape.secondary"
         fill-opacity="0.02"
         fill="#645fce"
         points="85.089,79.769 94.916,89.557 85.089,99.343 " />
      <polygon
         id="polygon14"
         fill-opacity="0.6"
         fill="#645fce"
         points="85.658,168 85.658,115.861 116.912,84.736 116.912,168 "
         transform="matrix(1.806998,0,0,1.806998,-86.424022,-62.48632)" />
      <polygon
         id="polygon16"
         fill-opacity="0.8"
         fill="#645fce"
         points="128.201,168 128.201,80.341 159.455,49.217 159.455,168 "
         transform="matrix(1.806998,0,0,1.806998,-86.424022,-62.48632)" />
      <polygon
         id="polygon18"
         fill="#645fce"
         points="170.746,168 170.746,31.123 202,0 202,168 "
         transform="matrix(1.806998,0,0,1.806998,-86.424022,-62.48632)" />
      <polygon
         id="shape.primary"
         fill-opacity="0.5"
         fill="#40356f"
         points="71.963,0 130.037,0 101,28.917 "
         transform="matrix(1.806998,0,0,1.806998,-86.424022,-62.48632)" />
      <polygon
         id="polygon25"
         fill-opacity="0.8"
         fill="#40356f"
         points="42.545,43.008 73.799,74.132 73.799,109.346 42.545,140.47 "
         transform="matrix(1.806998,0,0,1.806998,-86.424022,-62.48632)" />
      <polygon
         id="polygon27"
         fill-opacity="0.6"
         fill="#40356f"
         points="94.916,89.557 85.089,99.343 85.089,79.769 "
         transform="matrix(1.806998,0,0,1.806998,-86.424022,-62.48632)" />
      <polygon
         id="polygon29"
         fill="#40356f"
         points="21.134,168 0,168 0,0 31.254,31.123 31.254,157.923 "
         transform="matrix(1.806998,0,0,1.806998,-86.424022,-62.48632)" />
      <polygon
         id="polygon31"
         fill-opacity="0.6"
         fill="#40356f"
         points="33.301,168 74.367,127.105 74.367,168 "
         transform="matrix(1.806998,0,0,1.806998,-86.424022,-62.48632)" />
    </g>
  </g>
</svg>
